<svg
   xmlns:dc="http://purl.org/dc/elements/1.1/"
   xmlns:cc="http://creativecommons.org/ns#"
   xmlns:rdf="http://www.w3.org/1999/02/22-rdf-syntax-ns#"
   xmlns:svg="http://www.w3.org/2000/svg"
   xmlns="http://www.w3.org/2000/svg"
   xmlns:sodipodi="http://sodipodi.sourceforge.net/DTD/sodipodi-0.dtd"
   xmlns:inkscape="http://www.inkscape.org/namespaces/inkscape"
   enable-background="new 0 0 200.4 205.44"
   viewBox="0 0 200.4 205.44"
   version="1.1"
   id="svg940"
   sodipodi:docname="0.svg"
   inkscape:version="0.92.5 (2060ec1f9f, 2020-04-08)">
  <metadata
     id="metadata946">
    <rdf:RDF>
      <cc:Work
         rdf:about="">
        <dc:format>image/svg+xml</dc:format>
        <dc:type
           rdf:resource="http://purl.org/dc/dcmitype/StillImage" />
        <dc:title></dc:title>
      </cc:Work>
    </rdf:RDF>
  </metadata>
  <defs
     id="defs944" />
  <sodipodi:namedview
     pagecolor="#ffffff"
     bordercolor="#666666"
     borderopacity="1"
     objecttolerance="10"
     gridtolerance="10"
     guidetolerance="10"
     inkscape:pageopacity="0"
     inkscape:pageshadow="2"
     inkscape:window-width="1330"
     inkscape:window-height="740"
     id="namedview942"
     showgrid="false"
     inkscape:zoom="1.1487539"
     inkscape:cx="100.2"
     inkscape:cy="102.72"
     inkscape:window-x="36"
     inkscape:window-y="0"
     inkscape:window-maximized="1"
     inkscape:current-layer="svg940" />
  <path
     d="m109.68,13.2c-.51.294-1.767.562-2.16.24 .51-.294 1.767-.563 2.16-.24z"
     fill-rule="evenodd"
     id="path2" />
  <path
     d="m110.88,12.96c1.343.497 3.559.122 4.32,1.2-1.48-.36-3.646-.034-4.32-1.2z"
     fill-rule="evenodd"
     id="path4" />
  <path
     d="m107.76,14.88c-.268.418-1.498.625-2.399.72-.574.06-1.264-.045-1.92,0 .438-.697 3.005-1.231 4.319-.72z"
     fill-rule="evenodd"
     id="path6" />
  <path
     d="m106.08,16.8c-.96-.403-2.389.753-2.4-.24 .479-.078 2.367-.775 2.4.24z"
     fill-rule="evenodd"
     id="path8" />
  <path
     d="m102.72,16.8c1.176-.078-1.906.127 0,0z"
     fill-rule="evenodd"
     id="path10" />
  <path
     d="m103.68,18.24c-.781.208-1.928.489-2.88.48-.412-.004-1.539.405-1.68-.48 1.735.315 3.271-.646 4.56,0z"
     fill-rule="evenodd"
     id="path12" />
  <path
     d="m134.88,18.48c-1.05,3.708-4.313,7.534-2.88,11.52-.889.487-1.338-.254-1.2-1.44-1.55-1.598-2.408-3.486-1.92-5.52 .689-2.868 3.895-3.041 5.521-4.8 .278-.039.426.053.479.24z"
     fill="#fff"
     fill-rule="evenodd"
     id="path14" />
  <path
     d="m101.76,20.16c.034.994-1.67.25-2.4.48-.773.106-1.3.459-2.16.48 .392-1.448 2.858-.822 4.56-.96z"
     fill-rule="evenodd"
     id="path16" />
  <path
     d="m122.64,21.6c-.376,1.624-2.244,1.756-3.6,2.4 .406-1.593 2.329-1.671 3.6-2.4z"
     fill-rule="evenodd"
     id="path18" />
  <path
     d="m118.08,24.24c-.98-.035-3.052-.907-3.601-2.16 1.47-.454 3,.961 3.601,2.16z"
     fill-rule="evenodd"
     id="path20" />
  <path
     d="m101.76,22.08c-1.115.884-2.817,1.182-4.56,1.44 .996-1.003 2.653-1.348 4.56-1.44z"
     fill-rule="evenodd"
     id="path22" />
  <path
     d="m124.56,24.96c.034,1.074-1.39.69-1.92,1.2-1.614,1.882-2.124,2.834-4.08,2.64-2.963-.294-5.403-5.819-9.84-3.36 1.306-3.08 4.982-.606 6.721.48 .714.446 1.443.673 1.92.96 .385.232.399.795.72.96 3.12,1.603 2.818-3.671 6.479-2.88z"
     fill-rule="evenodd"
     id="path24" />
  <path
     d="m100.32,24.24c-.573,1.268-2.767.913-4.08,1.44 .739-1.1 2.322-1.358 4.08-1.44z"
     fill-rule="evenodd"
     id="path26" />
  <path
     d="m96.96,36.72c-.816-.788-.75.66-.96,1.2-1.713-1.006-3.807-1.633-5.04-3.12-.325.235-.311.809-.72.96-.966.166-.589-1.011-1.44-.96-1.681,2.319 3.805,2.469 3.12,4.56-1.978-1.142-4.105-2.134-4.8-4.56 .813-2.76 4.232-1.006 6.24-1.2-.357.59-.986.537-.48,1.44 .604.676 1.778.782 3.12.72-.379-1.062-.708-2.172-1.2-3.12-2.498-1.743-5.954-3.806-6-7.2 .81-.02.479.825.72,1.2 .648,1.006 1.836,1.63 2.16,2.88 2.795,1.365 5.171,3.149 5.28,7.2z"
     fill-rule="evenodd"
     id="path28" />
  <path
     d="m98.88,26.88c-1.201-.082-1.678.562-2.88.48 .082-.806 2.557-1.483 2.88-.48z"
     fill-rule="evenodd"
     id="path30" />
  <path
     d="m90.24,27.12v-.48c.512-.112.457.343.48.72-.195-.046-.239-.241-.48-.24z"
     fill-rule="evenodd"
     id="path32" />
  <path
     d="m86.16,27.36c-.028.612-.045,1.235-.72,1.2-.047-.687-.03-1.31.72-1.2z"
     fill-rule="evenodd"
     id="path34" />
  <path
     d="m111.6,31.92c.783.063.693-.747 1.2-.96 1.626.294 2.677,1.164 2.641,3.12-.872.648-2.058.983-3.36,1.2-.263-.612.819-1.234-.24-1.2-.21-.771.622-.498.72-.96-.131-.251-1.392.206-1.92-.24-.399-.477.022-.305 0-.96-.52.268-.791.406-1.439.24-.119-.031-.726-.445-.48-.48-1.467.213-1.892,1.743-2.64,3.12-1.462-1.186.775-2.279 1.2-3.12-.615-.207-2.367.507-3.36.72 .255-1.985 2.205-2.274 3.12-3.6 1.09.19 2.117.443 2.4,1.44 .477-.003.305-.655.96-.479 .315,1.212 1.445.548 2.159.72-.012.788-1.027.573-.961,1.439zm1.68,1.2h.479c-.01-.331.113-.527.24-.72-.359.041-.886-.085-.96.24 .188.053.28.201.241.48z"
     fill-rule="evenodd"
     id="path36" />
  <path
     d="m130.8,31.68c.279-.039.428.053.48.24-.287,3.473-.671,6.849-2.16,9.12-1.288-3.517.806-6.117 1.68-9.36z"
     fill="#fff"
     fill-rule="evenodd"
     id="path38" />
  <path
     d="m113.04,32.64c.074-.326.601-.199.96-.24-.127.193-.25.39-.24.72h-.479c.038-.279-.054-.427-.241-.48z"
     fill="#fff"
     fill-rule="evenodd"
     id="path40" />
  <path
     d="m129.84,32.4c-.972,1.828-1.417,4.183-2.16,6.24 1.521,4.273-2.481,6.66-2.88,10.56-.939-.484.481-2.052.24-3.36-.939.181-.503,1.737-.96,2.4-.466-.734-.124-2.275-.96-2.64 .109-1.011 1.135-1.105 1.439-1.92 .803-3.27-2.616-4.712-2.159-7.2 .236-1.291 1.493-1.565 2.399-2.64 1.193-.153 1.351.729 2.4.72-.508.932-.619,2.261-1.2,3.12 .221.654.75-.335 1.44,0 .46-1.276.906-2.332.239-3.6 .785-.497.759-1.804 2.162-1.68zm-5.52,6.24c.481-.799 1.779-.78 1.439-2.4-2.334-.908-3.049,1.465-1.439,2.4z"
     fill="#fff"
     fill-rule="evenodd"
     id="path42" />
  <path
     d="m127.44,33.12c.706.361-.469,1.484-.961.72 .066-.495 1.064-.057.961-.72z"
     fill="#fff"
     fill-rule="evenodd"
     id="path44" />
  <path
     d="m108.479,35.04h3.12c.064.864-.443,1.157-.479,1.92-.599.202-1.286.314-2.16.24-.46-.588-.973-1.266-.481-2.16z"
     fill-rule="evenodd"
     id="path46" />
  <path
     d="m117.12,35.52h.72c-.658,1.925.899,3.028.72,4.32-1.32-.481-2.072-2.673-1.44-4.32z"
     fill-rule="evenodd"
     id="path48" />
  <path
     d="m125.76,36.24c.34,1.62-.958,1.602-1.439,2.4-1.611-.935-.896-3.308 1.439-2.4z"
     fill-rule="evenodd"
     id="path50" />
  <path
     d="m100.56,37.68h.72c.091.943 1.225,2.739-.24,3.12 .067-.627.081-1.201-.72-.96-.129-.928.429-1.172.24-2.16z"
     fill-rule="evenodd"
     id="path52" />
  <path
     d="m154.8,82.32c-.721-.148.72-1.784 1.2-2.4 .662-.849 1.438-1.815 2.16-2.16 .292-1.548 1.815-1.865 2.16-3.36-.805-.165-.878.403-.96.96-2.266.855-4.444,1.796-6.96,2.4-.104-.537-1.184-.098-1.681-.24-.738,1.102-1.239,2.44-2.399,3.12-.75,2.643-4.141,5.771-6,7.92-2.174,2.511-4.364,4.898-6.24,6.72-5.4,5.244-10.052,11.223-15.12,16.8 .698-2.879 3.253-5.059 5.28-7.439 .97-1.139 1.919-2.384 2.88-3.6 1.471-1.861 2.658-3.821 4.32-5.52 1.425-.255 1.605-1.754 3.119-1.92 .262-1.643 1.884-2.137 2.881-3.12 3.229-3.186 5.62-7.155 8.88-10.32 .454-.826.594-1.966 1.68-2.16-.021-.38.115-.916-.24-.96 .472-.533 1.592.314 2.641,0 .151-1.112-1.312-.608-2.16-.72-.432-.448-.79-.97-1.2-1.44-.733-.173-.875.246-1.44.24-.066-.493-.641-.479-.96-.72-9.579-1.081-20.865-3.271-31.439-3.84-3.054-.165-6.202-.144-9.36,0-4.211.192-5.29,1.266-7.44,4.08-1.266,1.657-2.306,2.861-3.12,4.8-2.077,1.763-3.657,4.023-5.28,6.24-.198.678.338.622.24,1.2h-.96c-.041.601.369.751.72.96 .628.326.304-.625.48-.72 .499-.271.894.405 1.2.24 1.074-.579 1.404-1.773 2.16-2.88 .77.977-1.451,1.621-.48,2.88-1.101-.221-1.253.507-1.2,1.44-2.083.317-2.169,2.631-3.84,3.36-.739.179-.461-.659-1.2-.48-.797.508.72.697.48,1.44-.255,1.745-1.537,2.463-3.12,2.88 .218.502.708.732 1.44.72-.578,1.262-1.571,2.108-2.88,2.64-.102-.501.165-.635.24-.96-1.562.233-1.234.378-2.64,0 .293.907 1.856.544 2.4,1.2-2.467,1.213-2.376,4.983-5.04,6 .698-1.941 2.547-2.733 3.12-4.8-.643-.237-1.09-.67-1.92-.72-.255.895.9.38.72,1.2-1.52,1.44-2.753,3.167-4.32,4.561 .537-2.184 2.587-2.853 3.36-4.8-2.834,1.405-3.533,4.947-6,6.72-.177-2.463-.703-4.578-2.4-5.521 .308-.442.459-1.672 1.2-.96 .56-1.041.998-2.202 1.68-3.12-.104-.356-.307.095-.72,0 .375-1.177 1.324-.477 1.68.24-.722,1.038-1.863,1.657-1.92,3.36 .855-.425 1.418-1.142 2.4-1.44-.145.896-.902,1.178-.96,2.16 1.127.247.639-1.121 1.68-.96-.192.769-.709,1.211-.72,2.16 1.114-1.046 1.357-2.963 2.64-3.84-1.562-.678-2.655-1.825-3.84-2.88 .055-2.298-.514-3.722-.24-6-.758.042-.651.949-.72,1.68-2.685-1.395-5.457-2.704-9.36-2.88-1.49-2.159-5.064-.764-7.2-2.16-.287-1.793-3.013-1.147-4.32-1.92 .059.981 1.25.83 1.92,1.2 1.162,1.319 2.941,2.019 5.28,2.16-.881,2.358 4.675.257 4.8,2.4-.523.043-.763-.196-.72-.72-.554-.074-.267.693-.72.72-1.411-.429-3.486-.194-4.56-.96-1.781.389-4.339-.219-5.28-1.44-1.334.319-3.258-.701-4.08-1.68-1.478.038-2.212-.667-2.88-1.44-1.387.188-2.099-.301-2.88-.72-.281.039-.203.438-.24.72-.428-.416-1.074-1.075-.24-1.44-1.27-.865-1.962-3.525-.48-4.56 2.167,1.434 3.893,3.308 6.96,3.84-.396-1.285-1.771-1.589-3.12-1.92-.764-1.076-1.623-2.057-3.12-2.4-1.725-2.897.432-6.271 2.88-7.68 2.964-.618 4.647,1.238 6.72.72-.786-1.19-3.231-1.056-4.8-1.44 .926-.674 1.475-1.726 2.64-2.16 2.551-5.609 6.658-9.662 12-12.48 .78-1.208 1.757-2.139 2.64-3.6 1.842-3.049 4.181-6.454 6.96-9.12 1.062-1.02 3.205-2.208 4.8-3.12 1.162-.664 2.539-1.597 2.88-1.68 1.782-.435 3.732.615 5.52-.48 2.056,1.413 3.7,3.776 6,5.28 .225.147.714-.116.96,0 1.841.869 2.9,2.874 3.84,4.8 .218.422.841.439 1.2.72 .018,3.341 2.124,4.596 2.88,7.2 .213-.106.429-.21.48-.48 .585.535.454,1.787.96,2.4 .739-.677-.25-1.656 0-2.64 .949.57.634,2.406.96,3.6 1.529-.2-.131-1.65.24-2.88 2.322-.153.449,4.31 1.439,4.8 .44-.868.488-1.904.24-2.88 .617.023.343.937.96.96-.504,1.256-1.12,2.399-1.2,4.08 1.176-.265.418-2.462 1.681-2.64-.049,1.312-.803,1.917-.96,3.12-3.104-.286-6.564-1.213-7.2,1.92-2.558,2.001-4.464,4.656-6.48,7.2-.893.093-.444-1.156-1.2-1.2-2.008.232-2.661,1.818-3.12,3.6-1.217.193-1.928-1.431-2.88-2.16-.936-.717-2.366-1.271-2.88-2.64-.579-1.542-.17-3.478-.96-5.28-.275-.755.376-.583.48-.96-.385-.792-.897.034-1.44-.48 .535-.825 1.967-.753 2.16-1.92-.045-.194-.241-.239-.24-.48-1.043-.854-.68,1.05-.96,1.2-.307.165-.143-.652-.24-.72-.155-.107-2.132.449-2.4,2.4-.818.178-.396-.884-.96-.96-1.158.122-.78,1.781-1.92,1.92 .432-1.888 1.835-2.805 2.88-4.08-1.064-.008-4.584-.699-5.76.96-1.613-.564-3.004.286-3.6,1.44 .618.443 1.538-.417 2.16-.72 .444.036.147.813.48.96 .722-.558 1.493-1.067 2.16-1.68 1.29.613-.945.669-.72,1.68 1.114.069 2.197-1.959 3.84-2.16-.619,1.042-2.527,2.314-1.92,3.12-.104.537-1.183.097-1.68.24 .386.812-.754,1.174.48,1.68-.221.654-.75-.335-1.44,0-.18.82.975.305.72,1.2-.896.257-.684-.596-1.44-.48-.275.995.505.935.48,1.68-.278-.202-.643-.317-1.2-.24-.332.972.521.759.48,1.44-.315.308-.885.308-1.2,0-.287,1.313-1.532,1.667-1.92,2.88-.431.03-.506-.294-.96-.24-.318,1.59-3.292.522-4.08,2.16-.968-.632-2.418-.782-2.4-2.4-1.172.468-1.489.28-2.88,0 2.114,2.206 5.585,3.055 6.96,6 1.448.392 2.117,1.563 2.88,2.64 3.674.263 7.572,3.554 12.48,1.92 .05.411-.409.622 0,.72 .958-.079 1.259-1.101 2.16-1.44 .651-.245 1.565.143 2.16-.48 .703-.062.738.542 1.44.48 1.461-3.098 3.542-5.578 6-7.68 2.316-4.163 6.005-6.955 8.88-10.56 1.159.052 2.409-.064 3.6.24 1.163.297 2.154.833 4.08.96 9.355.616 20.216-.156 29.76.48 5.239.349 10.021,1.922 13.92,4.08 .331.79.188,2.051.96,2.4 1.263.143 1.113-1.127 1.44-1.92 1.021-.496.847-1.657 1.439-2.4 1.085-1.359 4.331-3.435 6.96-4.56 1.453-.622 1.58-.755 3.36-1.2 3.114-.778 6.629-1.019 9.84-2.16 .926.034 1.109.811 2.16.72 .802.001.636-.964 1.2-1.2 1.071.022-.718,1.171.72,1.2-.534.585-.526,1.714-.48,2.88 1.482-.278 2.375-1.146 3.841-1.44 .115.756-.737.543-.48,1.44-.578.098-.521-.438-1.2-.24-.021.34-.039.68.24.72-1.021.258-1.788.772-2.4,1.44-7.266,1.455-13.846,4.874-19.68,6.96-.271-1.649 2.138-1.658 3.36-2.16 1.63-.669 2.886-1.202 4.8-1.92 2.288-.858 4.69-2.293 6.96-2.88 .664-.172 1.534.432 1.92-.48-1.259-1.018-2.666.344-3.84.72-2.407.771-4.807,1.281-7.2,2.4-1.105.517-3.283,1.16-4.8,1.92-1.134.569-1.761,1.813-3.12,1.68-.136,1.095.426,1.495.24,2.64-1.001.679-2.456.904-3.36,1.68 1.616.214 4.855-.896 4.32-2.88 .604-.063 1.598-.404 2.16.24-.062-1.375 1.814-1.728 3.359-2.16-2.984,3.576-5.877,7.243-8.881,10.799zm-78-19.44c.857-.263 1.417-.823 1.68-1.68-.325-.076-.458-.342-.96-.24 .062.941-.868.892-.72,1.92zm-11.28.48c.891.342 2.027-.316 2.4-1.2-1.275-.076-2.268.132-2.4,1.2zm111.12,2.16c.544-.737 2.405-.155 2.4-1.44-.979.148-2.916.595-2.4,1.44zm-77.52,1.2c-3.31,4.53-7.88,7.8-10.56,12.96-1.059.861-1.99,1.85-2.16,3.6-.578.099-.521-.438-1.2-.24 .358,1.721 1.393,2.767 3.36,2.88-.024-1.016-1.608-.472-1.68-1.44 4.329-3.191 7.323-7.717 10.32-12.24 1.621.021 1.654-1.545 2.4-2.4-1.027.413-1.652,1.228-2.64,1.68-1.493,3.387-4.414,5.346-6,8.64-1.576.666-2.41,3.346-4.08,3.12 3.116-6.563 8.571-10.789 12.72-16.32-.053-.187-.201-.279-.48-.24zm45.12,2.88c3.077.362 5.308,1.572 6.72,3.6-.653.412-1.056,1.36 0,1.68 .202-.802.159-1.118.72-1.92-.304-.416-.811-.629-.72-1.44-2.494-.786-3.73-2.829-7.2-2.64-.072.472.324.476.48.72zm8.88,5.28c.377-.023.832.032.72-.48h-.479c-.001.241-.195.286-.241.48zm-78.48,11.28c1.025-.023 2.788-.561 2.16-1.44-.509.691-1.779.621-2.16,1.44zm-.24,3.6c.964-.298.865-2.519 0-2.88-.402.829.196,1.59 0,2.88zm8.88-.96c.387,1.054 1.476,1.405 2.16,2.16-.067.627.088,1.032.72.96-.118-.757.432-.848.24-1.68-1.554-.526-2.016-2.144-4.08-2.16-.241.801.333.787.96.72zm-3.36,2.88h-1.2c-.389,1.174 1.293.636 1.2,0zm-.24,1.44c.495-.146 1.667.387 1.44-.48-.637.004-1.413-.133-1.44.48zm-1.44,3.36c.15.89.791,1.29 1.92,1.2-.336-.944-1.625-.935-1.92-1.92-.418-.018-.747.053-.96.24-.101-.459-.087-1.033-.72-.96-.168,1.208.498,1.582 1.68,1.44zm4.8-.72h.48c-.001-.241.194-.286.24-.48-.307-.013-.332-.308-.72-.24v.72z"
     fill="#fff"
     fill-rule="evenodd"
     id="path54" />
  <path
     d="m101.76,42c-.074-.955.555-1.206.48-2.16 1.152-.178.721,2.502-.48,2.16z"
     fill-rule="evenodd"
     id="path56" />
  <path
     d="m104.16,40.32c-.585.776-.479,2.242-1.681,2.4 .477-.884.423-2.298 1.681-2.4z"
     fill-rule="evenodd"
     id="path58" />
  <path
     d="m115.44,41.28c-1.144-.103-1.795.286-2.4.72-.216,1.095.399,1.36.479,2.16-3.03-.768.533-5.306 1.921-2.88z"
     fill-rule="evenodd"
     id="path60" />
  <path
     d="m106.08,40.8c-.915,1.326-1.363,3.117-2.88,3.84-.193-1.795.695-3.722 2.88-3.84z"
     fill-rule="evenodd"
     id="path62" />
  <path
     d="m107.04,43.44c.689.439.768-1.785 1.92-1.68-1.438,2.801-3.619,4.86-4.32,8.4-1.105-1.981 1.309-4.397 2.16-6-.309-.671-.496.756-1.2.48 .841-1.32 1.367-2.953 2.88-3.6-.132,1.148-1.234,1.326-1.44,2.4z"
     fill-rule="evenodd"
     id="path64" />
  <path
     d="m117.6,41.28c1-.264 1,1.705 0,1.44v-1.44z"
     fill-rule="evenodd"
     id="path66" />
  <path
     d="m104.64,44.64c.494-1.266.974-2.547 2.16-3.12-.541,1.219-.883,2.637-2.16,3.12z"
     fill-rule="evenodd"
     id="path68" />
  <path
     d="m116.4,44.16c-.105.295-.308.493-.721.48 .106-.295.308-.493.721-.48z"
     fill="#fff"
     fill-rule="evenodd"
     id="path70" />
  <path
     d="m111.36,45.12c-.094,1.667-1.387,2.134-2.641,2.64-.479.8-.416,2.144-1.68,2.16 .715-2.326 1.698-4.383 4.321-4.8z"
     fill-rule="evenodd"
     id="path72" />
  <path
     d="m119.28,45.12c.853.027.872.888 1.92.72-.277.921-1.893.088-1.92-.72z"
     fill="#fff"
     fill-rule="evenodd"
     id="path74" />
  <path
     d="m122.4,45.6c.817-.178.396.884.96.96-.469.764-1.485-.668-.96-.96z"
     fill="#fff"
     fill-rule="evenodd"
     id="path76" />
  <path
     d="m122.16,47.04c.632.316.735.788.479,1.44-.418-.221-.529-.751-.479-1.44z"
     fill="#fff"
     fill-rule="evenodd"
     id="path78" />
  <path
     d="m186.479,48c1.289.471 2.541.979 2.641,2.64-.655.175-.483-.477-.96-.48-.424.401.213.804 0,1.68-.986-.62-1.021-.231-2.16,0-.116.756.736.543.479,1.44-.678.199-.621-.338-1.199-.24-.118.757.433.848.239,1.68-.895.255-.38-.9-1.199-.72-.747.458.375,1.042.239,1.68 1.194-.167 1.945-.775 2.16-1.92 2.438-.053 3.229,2.929 1.92,4.56-.43.031-.506-.293-.96-.24-.405.395-.298,1.302-.72,1.68-.719-.158.229-.513 0-.96-1.356-.397-.988,1.8-1.92.48-.792.329-.316,1.924-1.44,1.92-.039-.759.639-.802.48-1.68-1.308.105-1.331,1.814-2.16,2.4-.737.521-1.56.439-2.64.72 .773-2.827 2.082-5.118 4.8-6 .17-.89-.41-1.03-.24-1.92-1.183,1.057-2.738,1.741-4.08,2.64-.004-1.239 1.193-1.802 1.44-2.88 .113-.497-.197-1.215 0-1.68 .994-2.347 4.079-2.734 5.28-4.8zm-3.119,6c.019-.898-.941-.819-1.681-.96-.049.913 1.189,1.332 1.681.96z"
     fill="#fff"
     fill-rule="evenodd"
     id="path80" />
  <path
     d="m177.12,60c-.83.43-2.481-1.139-1.92-2.16-.71-.818-1.309-.713-1.92,0 .061-2.197.66-3.96.479-5.76 2.629-1.78 3.889,1.352 4.561,3.6-.004.716-.624.816-.721,1.44 .533,1.502-.888,2.298-.479,2.88zm-2.4-3.84c.495-.146 1.668.387 1.44-.48-.347-.636-1.546-.128-1.44.48z"
     fill="#fff"
     fill-rule="evenodd"
     id="path82" />
  <path
     d="m181.68,53.04c.739.141 1.699.062 1.681.96-.493.372-1.731-.047-1.681-.96z"
     fill-rule="evenodd"
     id="path84" />
  <path
     d="m176.16,55.68c.228.867-.945.334-1.44.48-.106-.608 1.093-1.116 1.44-.48z"
     fill-rule="evenodd"
     id="path86" />
  <path
     d="m178.56,56.64c.899-.129.339,1.759-.239,1.68-.193-.833.357-.923.239-1.68z"
     fill="#fff"
     fill-rule="evenodd"
     id="path88" />
  <path
     d="m57.12,56.88c.388-.067.413.227.72.24-.045.194-.241.239-.24.48h-.48v-.72z"
     fill-rule="evenodd"
     id="path90" />
  <path
     d="m105.6,58.8c.729.296-.26.826 0,1.44-.949-.256.061-.728 0-1.44z"
     fill="#fff"
     fill-rule="evenodd"
     id="path92" />
  <path
     d="m108.96,59.28c1.052.628 2.592.768 3.84,1.2-.758.029-2.092.597-2.88.24-.359-.163-.293-1.206-1.2-.24-.076-.557.039-.921.24-1.2z"
     fill="#fff"
     fill-rule="evenodd"
     id="path94" />
  <path
     d="m105.84,60.24c1.066-.276 1.066,2.437 0,2.16v-2.16z"
     fill="#fff"
     fill-rule="evenodd"
     id="path96" />
  <path
     d="m113.52,60.24c1.1.16-.193,1.453 0,0z"
     fill="#fff"
     fill-rule="evenodd"
     id="path98" />
  <path
     d="m107.28,60.48c.864-.23.425,1.036.239,1.2-.519.04-.108-.851-.239-1.2z"
     fill="#fff"
     fill-rule="evenodd"
     id="path100" />
  <path
     d="m77.52,60.96c.501-.102.635.165.96.24-.263.857-.823,1.417-1.68,1.68-.148-1.028.782-.979.72-1.92z"
     fill-rule="evenodd"
     id="path102" />
  <path
     d="m109.44,61.2c.198.678-.339.622-.24,1.2-.522-.213-.733-1.34.24-1.2z"
     fill="#fff"
     fill-rule="evenodd"
     id="path104" />
  <path
     d="m124.32,61.2c.562.062.138,1.054 0,1.2-.704-.204.312-.604 0-1.2z"
     fill="#fff"
     fill-rule="evenodd"
     id="path106" />
  <path
     d="m110.16,61.44c.865-.041.865,1.241 0,1.2v-1.2z"
     fill="#fff"
     fill-rule="evenodd"
     id="path108" />
  <path
     d="m113.76,61.44c1.177.707-.531,2.442-.72,3.36-1.077-.739.889-1.993.72-3.36z"
     fill="#fff"
     fill-rule="evenodd"
     id="path110" />
  <path
     d="m113.28,61.68c-.157,1.202-.912,1.808-.96,3.12h-1.44c.547-1.293.566-3.113 2.4-3.12z"
     fill="#fff"
     fill-rule="evenodd"
     id="path112" />
  <path
     d="m108,61.92c.341.651.756,2.129.24,2.88-1.289-.198-.516-2.16-.24-2.88z"
     fill="#fff"
     fill-rule="evenodd"
     id="path114" />
  <path
     d="m67.92,62.16c-.373.883-1.509,1.542-2.4,1.2 .132-1.068 1.125-1.276 2.4-1.2z"
     fill-rule="evenodd"
     id="path116" />
  <path
     d="m106.56,62.64c.417.384.521,1.08.48,1.92-.431-.03-.506.294-.96.24-.426-1.113-.081-.694-1.2-.48-.174-.734.414-.706.24-1.44 .931.026 1.094.953 1.44-.24z"
     fill="#fff"
     fill-rule="evenodd"
     id="path118" />
  <path
     d="m78.48,63.12c.914-.415-1.528.694 0,0z"
     fill="#fff"
     fill-rule="evenodd"
     id="path120" />
  <path
     d="m109.68,63.84c.068.628-.087,1.033-.72.96-.067-.628.088-1.032.72-.96z"
     fill="#fff"
     fill-rule="evenodd"
     id="path122" />
  <path
     d="m185.04,63.84c.735.236-.275.641-.24.96-.736-.236.276-.64.24-.96z"
     fill="#fff"
     fill-rule="evenodd"
     id="path124" />
  <path
     d="m179.04,64.08c.005,1.285-1.856.703-2.4,1.44-.516-.845 1.421-1.292 2.4-1.44z"
     fill-rule="evenodd"
     id="path126" />
  <path
     d="m122.64,64.32c.7-.353.7,1.073 0,.72v-.72z"
     fill="#fff"
     fill-rule="evenodd"
     id="path128" />
  <path
     d="m77.28,64.8c-.256.224-.075.886-.72.72-.043-.523.196-.764.72-.72z"
     fill="#fff"
     fill-rule="evenodd"
     id="path130" />
  <path
     d="m182.16,64.8c.713,1.122-1.008,1.866-1.681,2.4-.363-.773 1.528-1.347 1.681-2.4z"
     fill="#fff"
     fill-rule="evenodd"
     id="path132" />
  <path
     d="m183.6,65.04c-.306.494-.383,1.217-1.199,1.2 .305-.494.382-1.217 1.199-1.2z"
     fill="#fff"
     fill-rule="evenodd"
     id="path134" />
  <path
     d="m186.72,65.28c1.506.992-1.63,2.131-.96,3.12h-1.68c.661-1.258 2.638-1.202 2.64-3.12z"
     fill="#fff"
     fill-rule="evenodd"
     id="path136" />
  <path
     d="m180.72,65.52c-.208.591-.559,1.041-1.439.96-.161-.96.634-.965 1.439-.96z"
     fill="#fff"
     fill-rule="evenodd"
     id="path138" />
  <path
     d="m73.2,66.24c.481-.082.751.049.72.48h-.72v-.48z"
     fill="#fff"
     fill-rule="evenodd"
     id="path140" />
  <path
     d="m77.04,66.48v.48c-1.17.24-.443-1.277 0-.48z"
     fill="#fff"
     fill-rule="evenodd"
     id="path142" />
  <path
     d="m99.6,66.96c-4.149,5.531-9.604,9.756-12.72,16.32 1.67.227 2.504-2.454 4.08-3.12 1.586-3.294 4.507-5.253 6-8.64 .988-.452 1.613-1.267 2.64-1.68-.746.855-.779,2.421-2.4,2.4-2.998,4.523-5.991,9.049-10.32,12.24 .072.968 1.656.424 1.68,1.44-1.967-.113-3.001-1.159-3.36-2.88 .678-.198.622.338 1.2.24 .17-1.75 1.101-2.739 2.16-3.6 2.68-5.16 7.25-8.43 10.56-12.96 .279-.039.427.053.48.24z"
     fill-rule="evenodd"
     id="path144" />
  <path
     d="m175.68,66.96c.408-.088.453.187.48.48-9.976,10.825-20.764,20.836-29.521,32.88-1.793.367-1.984,2.336-3.84,2.64 4.597-5.321 9.418-10.267 13.92-15.84 4.984-6.17 11.463-11.769 17.04-17.76 .146-.575.346-1.095.24-1.92 .628-.093 1.317-.123 1.681-.48z"
     fill="#fff"
     fill-rule="evenodd"
     id="path146" />
  <path
     d="m72.72,67.2h.96c.166.947-1.011.786-.96,0z"
     fill="#fff"
     fill-rule="evenodd"
     id="path148" />
  <path
     d="m173.76,67.68c-2.778,3.941-6.17,7.27-9.84,10.32 2.966-3.194 6.079-6.241 8.4-10.08 .734.174.706-.414 1.44-.24z"
     fill="#fff"
     fill-rule="evenodd"
     id="path150" />
  <path
     d="m179.28,67.68c.194.045.239.241.479.24-.045.194-.24.239-.24.48-.194-.045-.238-.241-.479-.24 .046-.194.241-.239.24-.48z"
     fill="#fff"
     fill-rule="evenodd"
     id="path152" />
  <path
     d="m74.88,68.16c1.135-1.135-.104,1.329-.24.24-.036-.285.126-.126.24-.24z"
     fill="#fff"
     fill-rule="evenodd"
     id="path154" />
  <path
     d="m72,68.16c.481-.082.751.049.72.48h-.72v-.48z"
     fill="#fff"
     fill-rule="evenodd"
     id="path156" />
  <path
     d="m75.6,68.64c.965.794.601,2.918 1.2,4.08-.967-.701-2.354-2.764-1.2-4.08z"
     fill="#fff"
     fill-rule="evenodd"
     id="path158" />
  <path
     d="m73.92,68.88c1.067.001.177,1.408-.48,1.2-.179-.739.659-.461.48-1.2z"
     fill="#fff"
     fill-rule="evenodd"
     id="path160" />
  <path
     d="m143.76,68.88c3.47-.189 4.706,1.854 7.2,2.64-.091.811.416,1.024.72,1.44-.561.802-.518,1.118-.72,1.92-1.056-.32-.653-1.268 0-1.68-1.412-2.028-3.643-3.238-6.72-3.6-.156-.244-.552-.248-.48-.72z"
     fill-rule="evenodd"
     id="path162" />
  <path
     d="m178.56,68.88c1.151.438-.505.71-.479,1.44-.652-.362.381-1.035.479-1.44z"
     fill="#fff"
     fill-rule="evenodd"
     id="path164" />
  <path
     d="m168,69.6c.408-.088.453.187.479.48-5.562,8.278-14.042,13.638-18.479,23.04-2.802,2.958-5.283,6.237-8.16,9.12-2.813.787-3.518,3.683-6,4.8 6.468-7.532 14.015-13.984 18.96-23.04 5.19-4.01 8.994-9.406 13.2-14.4z"
     fill="#fff"
     fill-rule="evenodd"
     id="path166" />
  <path
     d="m181.44,69.6c-.166.474-.641.64-1.2.72-.035-.675.588-.692 1.2-.72z"
     fill="#fff"
     fill-rule="evenodd"
     id="path168" />
  <path
     d="m182.88,69.6c-.104.295-.307.493-.72.48 .105-.295.307-.493.72-.48z"
     fill="#fff"
     fill-rule="evenodd"
     id="path170" />
  <path
     d="m74.16,70.32c.388-.067.413.227.72.24 1.193,3.607 3.301,6.299 6,8.4-1.049,1.128-1.417-.559-1.92-.96-1.98-1.579-4.129-3.896-5.28-6.48-.179-.739.659-.461.48-1.2z"
     fill="#fff"
     fill-rule="evenodd"
     id="path172" />
  <path
     d="m146.88,75.84c-.858.695-.722,1.086-1.92.48-7.488-1.65-18.586-3.397-28.32-3.84-2.794-.127-5.713-.151-8.399-.48-.695-.085-1.354.114-2.641.24-1.298.127-2.038.295-3.12.72-.928,1.144-1.951,2.214-2.879,3.36-2.632,3.25-5.061,7.218-8.64,9.84 1.092-2.547 3.289-4.472 5.04-6.96 1.147-1.63 2.502-3.348 3.84-5.04 .893-1.129 1.233-1.566 2.4-2.4 4.445-.076 9.729-.827 14.64-.24 3.405.407 8.934.386 12.48,1.68 3.111-.125 6.173.098 9.119.72 .32.067.047.369.24.48 .214.122 1.027-.112 1.681,0 1.389.239 2.764.388 4.56.72 .559.104 1.627-.023 1.919.72z"
     fill="#fff"
     fill-rule="evenodd"
     id="path174" />
  <path
     d="m72.48,71.76h.72c1.325,3.635 4.835,6.363 6.72,8.64-.127.911-.914-.313-1.2-.48-2.705-1.576-5.24-4.324-6.72-7.2-.175-.655.477-.483.48-.96z"
     fill="#fff"
     fill-rule="evenodd"
     id="path176" />
  <path
     d="m79.68,81.12c-1.096.885-2.896-.058-3.84-.72-2.255-1.581-3.784-4.553-5.28-6.96-.039-.279.053-.427.24-.48 .214-.187.542-.258.96-.24 1.487,3.953 3.947,6.934 7.92,8.4z"
     fill="#fff"
     fill-rule="evenodd"
     id="path178" />
  <path
     d="m89.76,73.44c-.218,1.913-1.59,3.152-2.64,4.32-1.088,1.211-2.358,2.295-3.36,3.6-.76-.333-2.119-.333-2.88,0 .148-.892.572-1.508.72-2.4 2.232-.43 3.358-.382 4.56-1.92 .275-.353.852-.776.96-.96 .85-1.445.517-4.185 2.64-2.64z"
     fill="#fff"
     fill-rule="evenodd"
     id="path180" />
  <path
     d="m107.52,72.96c-1.61,2.93-3.968,5.755-6.239,8.4-1.313,1.529-2.406,3.948-4.32,5.28-.527.513-.279,1.8-1.44,1.68-.709-.944.501-1.627 1.2-1.92 2.225-3.503 5.175-6.352 7.44-9.84 .887-1.367 1.823-2.86 3.359-3.6z"
     fill="#fff"
     fill-rule="evenodd"
     id="path182" />
  <path
     d="m108.479,72.96c.409-.088.453.187.48.48-1.484,2.596-3.449,4.71-4.8,7.44-2.068,1.656-3.482,3.907-5.28,6-.499.581-1.009,1.581-1.92,1.68 .63-2.399 2.686-3.809 4.08-5.52 1.413-1.735 2.605-3.565 3.84-5.52 1.72-1.002 2.571-2.87 3.6-4.56z"
     fill="#fff"
     fill-rule="evenodd"
     id="path184" />
  <path
     d="m116.88,73.44c-.461.579-1.127.953-1.68,1.44-2.689,5.437-6.958,9.921-10.32,14.88-1.188,1.751-1.784,3.603-2.88,5.52-.76,1.331-2.201,2.159-3.12,3.36-1.209,1.58-2.163,3.854-3.36,5.76-.552.879-1.199,1.718-1.92,2.64-1.211,1.549-1.927,2.785-3.84,3.601 .205-1.238 1.15-2.209 1.92-3.12 .814-.964 1.643-1.84 2.4-2.88 1.515-2.083 2.616-4.291 4.08-6.48 2.05-3.066 4.646-6.006 6.72-9.36 .688-1.112 1.167-2.404 1.92-3.36 .825-1.048 1.472-1.594 2.4-2.88 1.884-2.61 3.865-5.821 5.76-8.88-1.163-.188-1.65,1.133-2.16,1.92-1.291,1.993-2.759,5.978-4.56,7.44-.611.497-1.356.369-1.92.96-.405-1.051 1.106-2.249 1.439-3.36 .49-.23.95-.49 1.44-.72 .547-2.537 3.733-3.566 3.12-6.48-1.696,1.583-2.816,3.744-4.08,5.76-.606-.623.646-1.423.479-2.4-1.229,1.684-1.986,3.481-3.12,5.28-1.077,1.71-2.723,2.876-3.12,5.52-.756.524-1.295,1.264-2.16,1.68-1.513,3.927-4.437,6.443-6.96,9.36 .184,2.028-1.795,2.834-2.64,4.08-1.239,1.827-1.713,4.593-4.08,5.04 .86-3.036 3.873-5.051 5.52-7.68 .437-.697.478-1.666.96-2.4 .683-1.04 1.889-1.691 2.64-2.64 .647-.817 1.03-2.015 1.68-2.88 .32-.425.882-.751 1.2-1.2 .709-1.001 1.219-1.93 2.4-2.64 2.592-5.408 6.28-9.719 8.64-15.36 2.965-.045 4.306.282 7.202.479zm-8.401,2.88c1.056-.31 2.106-1.887 1.921-2.64-.859.66-1.505,1.534-1.921,2.64z"
     fill="#fff"
     fill-rule="evenodd"
     id="path186" />
  <path
     d="m69.84,73.44c1.136,1.087 1.3,2.593 2.16,3.84 .783,1.136 2.187,2.766 3.36,3.6 .928.66 2.354.632 3.12,1.68-.623.594-1.177-.233-2.16,0v-.72c-3.722-1.238-5.903-4.016-7.2-7.68-.087,2.826 1.841,5.327 4.08,6.96 .75.547 2.077.475 2.4,1.44-2.637.338-3.44-1.284-4.8-2.88-1.378-1.619-2.66-2.49-2.64-5.52 .661-.139 1.003-.598 1.68-.72z"
     fill="#fff"
     fill-rule="evenodd"
     id="path188" />
  <path
     d="m110.4,73.68c.186.753-.865,2.33-1.921,2.64 .416-1.106 1.062-1.98 1.921-2.64z"
     fill-rule="evenodd"
     id="path190" />
  <path
     d="m119.28,74.16c.058-.422.413-.547.96-.48 .241.722-.535.425-.96.48z"
     fill-rule="evenodd"
     id="path192" />
  <path
     d="m102.72,74.4c-.07.489-.649.471-.72.96-.604-.241.191-1.061.72-.96z"
     fill="#fff"
     fill-rule="evenodd"
     id="path194" />
  <path
     d="m123.12,74.4c-1.531,1.989-2.729,4.311-4.8,5.76-.502,1.151-1.453,1.868-2.4,2.88-.507.542-.818,1.489-1.68,1.44 1.361-2.078 2.824-4.055 4.8-5.52 1.113-1.767 2.001-3.759 4.08-4.56z"
     fill-rule="evenodd"
     id="path196" />
  <path
     d="m153.36,74.4h.479c.112.512-.343.457-.72.48 .047-.194.241-.239.241-.48z"
     fill-rule="evenodd"
     id="path198" />
  <path
     d="m173.76,74.4c.854.454-.461,1.134-.72,1.44-1.806,2.133-4.592,4.983-6.48,6.48-.187-1.65 1.567-2.104 2.4-2.88 .762-.708 1.404-1.664 2.16-2.4 .92-.895 1.971-1.541 2.64-2.64z"
     fill="#fff"
     fill-rule="evenodd"
     id="path200" />
  <path
     d="m67.68,74.64c.121,3.559 2.413,4.947 3.84,7.2-2.752-.912-5.518-4.155-4.56-7.2h.72z"
     fill="#fff"
     fill-rule="evenodd"
     id="path202" />
  <path
     d="m71.28,139.44c-4.507,11.094-9.799,21.401-14.16,32.64 1.205-.432 1.256-1.86 1.68-2.88 1.919-4.622 4.559-9.96 6.72-14.88 .888-2.021 1.211-4.29 2.88-5.76-2.575,8.545-6.588,15.651-9.12,24.24h-3.84c.876-4.816 3.334-8.545 5.28-12.721 2.041-4.379 4.277-9.195 6.72-13.92 .558-.162.643-.797 1.2-.96-.145-.976.794-2.187 1.2-3.12 .399-.918.373-2.311 1.44-2.639z"
     fill="#fff"
     fill-rule="evenodd"
     id="path928" />
  <path fill="#00ffff" d="M100.2 102.72 A 50 50 0 0 1 100.2 102.72 Z" />
</svg>